<svg xmlns="http://www.w3.org/2000/svg" xmlns:xlink="http://www.w3.org/1999/xlink" viewBox="0 0 289.27 284.61"><defs><style>.cls-1{fill:#326ce5;}.cls-2{stroke:#fff;stroke-miterlimit:10;stroke-width:3px;fill:url(#linear-gradient);}.cls-3{fill:url(#linear-gradient-2);}.cls-4{fill:#fff;}</style><linearGradient id="linear-gradient" x1="145.36" y1="200.2" x2="287.77" y2="200.2" gradientUnits="userSpaceOnUse"><stop offset="0" stop-color="#fff33b"/><stop offset="0.04" stop-color="#fee72e"/><stop offset="0.12" stop-color="#fed51b"/><stop offset="0.2" stop-color="#fdca10"/><stop offset="0.28" stop-color="#fdc70c"/><stop offset="0.37" stop-color="#f9af22"/><stop offset="0.46" stop-color="#f69e32"/><stop offset="0.55" stop-color="#f4933c"/><stop offset="0.67" stop-color="#f3903f"/><stop offset="0.7" stop-color="#f2893e"/><stop offset="0.81" stop-color="#ee713d"/><stop offset="0.89" stop-color="#ed683c"/><stop offset="1" stop-color="#e93e3a"/></linearGradient><linearGradient id="linear-gradient-2" x1="202.65" y1="207.72" x2="253.52" y2="207.72" xlink:href="#linear-gradient"/></defs><title>Asset 6</title><g id="Layer_2" data-name="Layer 2"><g id="Layer_2-2" data-name="Layer 2"><path id="Shape" class="cls-1" d="M181.63,173.07a57.23,57.23,0,0,0,9.19-16.67l-29.31-5a3.19,3.19,0,0,0-1.14-.14,3.94,3.94,0,0,0-1.87.43,5,5,0,0,0-2.44,6.47l11.34,27.59A47.69,47.69,0,0,0,181.63,173.07Z"/><path id="Shape-2" data-name="Shape" class="cls-1" d="M104.19,185.87l11.21-27.31-.14-.15a4.41,4.41,0,0,0,.28-3,4.89,4.89,0,0,0-4.74-3.88h0a1.77,1.77,0,0,0-.86.15l-29.16,4.88a55.51,55.51,0,0,0,9.48,16.82A58,58,0,0,0,104.19,185.87Z"/><path id="Shape-3" data-name="Shape" class="cls-1" d="M94.71,94.74,119,112a5.38,5.38,0,0,0,2.87,1,4.81,4.81,0,0,0,4.89-4.74h.14l1.73-29.61c-2,.29-4,.58-6,1A56.57,56.57,0,0,0,94.71,94.74Z"/><path id="Shape-4" data-name="Shape" class="cls-1" d="M161.23,83.82A62.56,62.56,0,0,0,143,78.35L144.71,108a5.38,5.38,0,0,0,1,2.88,5,5,0,0,0,6.75.86h.15l24.13-17.1A67.63,67.63,0,0,0,161.23,83.82Z"/><path id="Shape-5" data-name="Shape" class="cls-1" d="M162,128.37a5,5,0,0,0,3.44,5.9v.14L194,142.6a59,59,0,0,0-1.29-18.83,59.79,59.79,0,0,0-7.18-17.68l-22,19.7A5.19,5.19,0,0,0,162,128.37Z"/><path id="Shape-6" data-name="Shape" class="cls-1" d="M148.87,193.77c2-.43,3.88-1,5.75-1.58l-14.37-25.87h-.14a6.2,6.2,0,0,0-2.16-2.16,5.65,5.65,0,0,0-2.15-.43h-.14a4.8,4.8,0,0,0-4.17,2.59l-14.37,25.87A60.94,60.94,0,0,0,148.87,193.77Z"/><path id="Shape-7" data-name="Shape" class="cls-1" d="M85.81,106a55.16,55.16,0,0,0-7,17.39,57.74,57.74,0,0,0-1.15,19.26l28.44-8.19v-.14a5.21,5.21,0,0,0,2.59-1.73,4.92,4.92,0,0,0-.58-6.75v-.15Z"/><polygon id="Shape-8" data-name="Shape" class="cls-1" points="131.2 127.22 125.6 134.27 127.61 143.03 135.8 147.06 143.84 143.03 145.86 134.27 140.25 127.22 131.2 127.22"/><path id="Shape-9" data-name="Shape" class="cls-1" d="M188.24,263.77A18,18,0,0,0,202.31,257l65.37-81.35a17.7,17.7,0,0,0,3.45-15.24L247.85,59.09a18.58,18.58,0,0,0-9.76-12.21L143.56,1.75A18.41,18.41,0,0,0,134.79,0a18.76,18.76,0,0,0-6.89,1.73L33.51,46.88a17.91,17.91,0,0,0-9.77,12.21L.47,160.57a18.06,18.06,0,0,0,2.44,13.8c.29.43.72,1,1,1.43l65.36,81.36a18,18,0,0,0,14.08,6.75Zm-90.8-61.52,1-2.44a74.31,74.31,0,0,1-32.61-40.68l-2.45.43c-.14,0-.14-.14-.28-.14a5.11,5.11,0,0,0-3-1,50.12,50.12,0,0,0-9.62,2.88h-.15c-.57.28-1.15.43-1.72.72-1.15.43-2.16.86-3.45,1.29-.29.14-.72.14-1,.29a.54.54,0,0,0-.43.14h0a6.07,6.07,0,0,1-7.32-4.17c-.72-3,1.43-6.18,4.88-6.9h0a.53.53,0,0,0,.43-.14,7.57,7.57,0,0,0,1-.29,15.6,15.6,0,0,1,3.59-.29,9.12,9.12,0,0,0,1.87-.14h.14a59.44,59.44,0,0,0,10.06-1.58,5.14,5.14,0,0,0,2.15-2.16l.29-.28,2.3-.72A73.69,73.69,0,0,1,74.6,96l-1.72-1.58v-.28a5.33,5.33,0,0,0-1.15-3c-2.16-2.16-5-3.88-8.34-5.9a15.19,15.19,0,0,1-1.58-.86,16.45,16.45,0,0,1-3-1.87,3.46,3.46,0,0,1-.86-.72c-.15-.14-.29-.14-.29-.28h0a6.6,6.6,0,0,1-2.44-4,5.58,5.58,0,0,1,1-4.31,5.41,5.41,0,0,1,4.31-2h.15a6.82,6.82,0,0,1,4,1.44c.14.14.28.14.28.28.29.29.72.58.87.72a20.71,20.71,0,0,1,2.44,2.59c.43.43.72.86,1.15,1.29l.14.15A60.72,60.72,0,0,0,77,84.39a3.57,3.57,0,0,0,2.88.43h.43c.28.29,1.43,1,2,1.44a72.54,72.54,0,0,1,36.92-21.13,79.37,79.37,0,0,1,10.2-1.58l.14-2.3a6.68,6.68,0,0,0,1.87-2.87,51.85,51.85,0,0,0-.57-10.21V48c-.15-.58-.15-1.15-.29-1.73a14.36,14.36,0,0,1-.43-3.59V41.27h0v-.14c0-3.45,2.58-6.33,5.74-6.33s5.75,2.88,5.75,6.33v1.58a28,28,0,0,1-.43,3.59A7.45,7.45,0,0,0,141,48v.29a49,49,0,0,0-.57,9.91A3.38,3.38,0,0,0,142,60.68l.28.28c0,.43.15,1.73.15,2.45A72.47,72.47,0,0,1,168,70.59a71.12,71.12,0,0,1,21.26,15.53l2.16-1.58h.28a6.19,6.19,0,0,0,3.16-.44,60,60,0,0,0,7.47-6.75l.15-.15a9.53,9.53,0,0,0,1.15-1.29,23.28,23.28,0,0,1,2.58-2.59,3.88,3.88,0,0,0,.87-.71c.14-.15.28-.15.28-.29,2.73-2.16,6.61-2,8.48.57s1.29,6.18-1.44,8.34c-.14.14-.29.14-.43.29s-.57.43-.86.72a35.19,35.19,0,0,1-3,1.86c-.57.29-1,.58-1.58.87a52.13,52.13,0,0,0-8.33,5.89,3.84,3.84,0,0,0-1,2.73V94a5.1,5.1,0,0,1-.86.72,8.45,8.45,0,0,0-1.15,1,72.58,72.58,0,0,1,10.63,24.43,71.14,71.14,0,0,1,1.15,26.45l2.3.72a.48.48,0,0,1,.15.28,4.23,4.23,0,0,0,2.29,2.16,48.05,48.05,0,0,0,10.06,1.58h.14c.58,0,1.3.14,1.87.14a33.7,33.7,0,0,1,3.59.29,2.58,2.58,0,0,1,1,.29c.29,0,.43.14.57.14,3.31.86,5.46,3.88,4.89,6.9a6.08,6.08,0,0,1-7.33,4.17h0c-.14,0-.29-.14-.57-.14s-.72-.15-.87-.15a11.59,11.59,0,0,1-3.3-1.29c-.57-.29-1.15-.43-1.72-.72h-.15a54.19,54.19,0,0,0-9.62-2.87h-.29a3.48,3.48,0,0,0-2.44,1c-.15.15-.29.15-.29.29-.43-.14-1.58-.29-2.44-.43a73.58,73.58,0,0,1-32.61,41c.14.14.14.43.28.72.29.57.44,1.29.58,1.44s-.14.28-.14.43a3.85,3.85,0,0,0-.29,2.87,47,47,0,0,0,5,8.91,10.92,10.92,0,0,0,1,1.44c.72,1,1.29,1.87,2,3a3.74,3.74,0,0,0,.58,1c.14.14.14.28.28.43,1.44,3.16.44,6.75-2.44,8.05a5.4,5.4,0,0,1-4.45.14,6.47,6.47,0,0,1-3.45-3.31c0-.14-.14-.28-.14-.43-.15-.43-.43-.72-.43-1a15.54,15.54,0,0,1-1.15-3.45,8.38,8.38,0,0,0-.58-1.73v-.14c-1.29-3.59-2.3-6.76-3.88-9.34a3.65,3.65,0,0,0-2.44-1.59c-.14,0-.29-.14-.43-.14s-.29-.57-.57-1a9.49,9.49,0,0,1-.58-1.14,83.54,83.54,0,0,1-9.62,2.87,74.05,74.05,0,0,1-42.53-3l-1.29,2.3a4.83,4.83,0,0,0-2.44,1.15c-1.44,1.73-2.3,4.17-3.16,6.76-.43,1.15-.72,2.3-1.15,3.3a8.38,8.38,0,0,1-.58,1.73,18.59,18.59,0,0,1-1.15,3.45,7.82,7.82,0,0,0-.43,1c-.14.15-.14.29-.28.43h0a6.41,6.41,0,0,1-5.61,3.74,4.56,4.56,0,0,1-2.3-.57c-2.73-1.3-3.87-5-2.44-8.05.15-.15.15-.29.29-.58s.29-.72.43-1a21.13,21.13,0,0,1,2-3c.29-.43.72-1,1-1.44a56.84,56.84,0,0,0,5.17-9.2A6.25,6.25,0,0,1,97.44,202.25Z"/><path class="cls-2" d="M152.07,181.77l19.39,3.61c-7.06,12.56-9.43,25.76-5.7,39.69a50.85,50.85,0,0,0,13.49,23.61c22.42,21.81,51,17.82,67.35,6,20.62-14.83,27.39-39.38,18.9-61.63a52.18,52.18,0,0,0-48.41-33.66v20.77l-.7.6-42.11-31.53,42.67-32v23.32q31,.56,52,22.86a68.18,68.18,0,0,1,16.82,31.64,71.08,71.08,0,0,1-37.28,80.43c-27.9,13.75-61.43,8.79-84.16-15.21C144.27,239.18,140,206.6,152.07,181.77Z"/><path class="cls-3" d="M213.72,227.66a10.93,10.93,0,0,1-4.82-1.14l-.68-.37a11,11,0,0,1-.78-18.63V187.77H220v19.75a11.16,11.16,0,0,1,3.62,4.19h29.89v10.18H223.44a11.09,11.09,0,0,1-4.17,4.24l-.66.36A11,11,0,0,1,213.72,227.66Z"/><path class="cls-4" d="M218.51,189.27v19.08a9.45,9.45,0,0,1,4.14,4.86H252v7.18H222.51a9.65,9.65,0,0,1-4,4.45l-.62.33a9.26,9.26,0,0,1-8.33,0l-.62-.33a9.49,9.49,0,0,1,0-16.49V189.27h9.57m3-3H205.94v20.5a12.48,12.48,0,0,0,1.49,20.66l0,0,0,0,.62.34.06,0,.05,0a12.28,12.28,0,0,0,11,0l.07,0,.06,0,.62-.34,0,0,0,0a12.54,12.54,0,0,0,4.27-4H255V210.21h-30.5a12.53,12.53,0,0,0-3-3.44v-20.5Z"/></g></g></svg>