<svg xmlns="http://www.w3.org/2000/svg" xmlns:xlink="http://www.w3.org/1999/xlink" viewBox="0 0 280.48 286.22"><defs><style>.cls-1{fill:none;}.cls-2{fill:#326ce5;}.cls-3{clip-path:url(#clip-path);}.cls-4{fill:#167e67;}.cls-5{fill:#f7fafa;}.cls-6{fill:#8bd2de;}.cls-7{fill:#829d34;}.cls-8{fill:#47af87;}.cls-9{fill:#e9ab1f;}.cls-10{fill:#c51012;}.cls-11{fill:#190319;}.cls-12{fill:#d41439;}.cls-13{fill:#111;}.cls-14{fill:#0096ff;}.cls-15{fill:#fff;}</style><clipPath id="clip-path"><rect class="cls-1" x="108.51" y="222.65" width="63.57" height="63.57" rx="9.54" ry="9.54"/></clipPath></defs><title>Asset 4</title><g id="Layer_2" data-name="Layer 2"><g id="Layer_2-2" data-name="Layer 2"><path class="cls-2" d="M259.87,0H20.61A20.64,20.64,0,0,0,0,20.61V165.25a20.63,20.63,0,0,0,20.61,20.61H88.43l-7.77,8.36H69a4.79,4.79,0,1,0,0,9.57H211.45a4.79,4.79,0,1,0,0-9.57H199.82l-7.76-8.36h67.81a20.63,20.63,0,0,0,20.61-20.61V20.61A20.63,20.63,0,0,0,259.87,0ZM9.57,159.82V26H270.91V159.82Zm11-150.25H259.87a11,11,0,0,1,10.22,6.9H10.39a11,11,0,0,1,10.22-6.9ZM186.75,194.22h-93l7.76-8.36H179Zm73.12-17.93H20.61a11.05,11.05,0,0,1-10.22-6.89h259.7a11.05,11.05,0,0,1-10.22,6.89Z"/><g class="cls-3"><path class="cls-4" d="M110.5,222.65,116.7,242l-8.19,2.6v-22Z"/><path class="cls-5" d="M116.7,242l11.68,34.89,34.14-11.18-11.05-34.64Z"/><path class="cls-6" d="M110.5,222.77,116.7,242l34.77-10.93-2.73-8.44Z"/><path class="cls-7" d="M148.74,222.65l2.73,8.44,20.61-6.33-.12-2.11Z"/><path class="cls-8" d="M108.51,283.11V244.62l8.19-2.6,11.68,34.89Z"/><path class="cls-9" d="M162.52,265.73l-11.05-34.64,20.61-6.33v37.87Z"/><path class="cls-10" d="M169.35,286.22l-6.83-20.49,9.56-3.1v23.59Z"/><path class="cls-11" d="M108.51,286.22v-3.11l19.87-6.2,3.1,9.31Z"/><path class="cls-12" d="M131.48,286.22l-3.1-9.31,34.14-11.18,6.83,20.49Z"/><path class="cls-13" d="M131.36,249.84c0-4.35,3.22-7.33,8.93-7.33a13.63,13.63,0,0,1,7.83,2.24.83.83,0,0,1,.37,1.12,19.39,19.39,0,0,1-1.24,2.73.79.79,0,0,1-1.12.12,14.11,14.11,0,0,0-4.59-1.61l-1.25-.13c-1.49.13-2.6.62-3.1,1.74l-.12.62c0,1.49,2,2,4.47,2.49,4.59.74,8.07,2.11,8.07,6.82,0,4-3.23,7.7-9.44,7.58a14.27,14.27,0,0,1-8.69-2.86,1.23,1.23,0,0,1-.25-1.36,10,10,0,0,1,1.49-2.61,1.14,1.14,0,0,1,1.37-.25,12.26,12.26,0,0,0,6.45,2.24c2.11-.13,3.48-.87,3.48-2.36,0-1.25-1.74-1.87-4.59-2.49-4.47-.74-8.07-2.23-8.07-6.7"/></g><rect class="cls-14" x="11.45" y="223.1" width="62.67" height="62.67" rx="8.96" ry="8.96"/><path class="cls-15" d="M22.84,237.59a5.32,5.32,0,0,0-4.31,3.54c-.28.81-.25-.38-.27,13.76,0,8.73,0,12.87,0,13.12a5.34,5.34,0,0,0,1,2.54,6.19,6.19,0,0,0,1.12,1.11,5.72,5.72,0,0,0,2,.89c.33.08.45.09,8.7.12,4.6,0,13.66,0,20.13,0H63l.33-.08a5.31,5.31,0,0,0,1.29-.48,5.22,5.22,0,0,0,2.86-4.07c0-.23,0-4.15,0-13.25,0-10.67,0-13,0-13.14a5.32,5.32,0,0,0-2-3.06,7.21,7.21,0,0,0-1.53-.8l-.56-.15-.35-.08H43.05C31.66,237.56,23,237.57,22.84,237.59ZM53,249.76c-6.46,6.46-9.5,9.48-9.64,9.56a.8.8,0,0,1-.83,0c-.11-.06-3.65-3.56-9.64-9.55l-9.47-9.45h39Zm11.81,5.1,0,13.17-.09.29a2,2,0,0,1-1.25,1.51l-.28.11-6.64-6.67-6.64-6.66,7.45-7.46c4.09-4.09,7.45-7.45,7.47-7.45S64.83,247.63,64.82,254.86Zm-36.27-5.72,7.32,7.33-6.71,6.72-6.72,6.72-.24-.11a1.84,1.84,0,0,1-.95-1.27c-.06-.25-.07-1.16-.07-13.49,0-7.27,0-13.22,0-13.22S24.52,245.11,28.55,249.14Zm11.56,11.54c1.73,1.75,2.38,2.38,2.49,2.43a1.05,1.05,0,0,0,.7,0c.11-.05.8-.71,2.44-2.35L48,258.47l5.78,5.78,5.77,5.8s-7.55,0-16.78,0-16.79,0-16.79,0,11.7-11.73,11.73-11.73S38.82,259.38,40.11,260.68Z"/><g id="g3760"><path id="path5" class="cls-14" d="M270.27,277.57a8.19,8.19,0,0,1-8.19,8.18H215.82a8.19,8.19,0,0,1-8.19-8.18V231.3a8.19,8.19,0,0,1,8.19-8.19h46.26a8.19,8.19,0,0,1,8.19,8.19v46.27Z"/><path id="path9" class="cls-15" d="M239.1,228.83c-14.83,0-26.86,9.54-26.86,21.28,0,6.92,4.18,13.08,10.66,17,3.53,3.24,3.19,8.43-1.71,13.25,5.94,0,15.39-3.51,17.49-9h.42c14.83,0,26.87-9.51,26.87-21.25S253.93,228.83,239.1,228.83Zm-14.37,28.59a8.64,8.64,0,0,1-3.74-.8l.61-2.47a7.59,7.59,0,0,0,3.3.82c1.38,0,2.1-.57,2.1-1.43s-.63-1.29-2.21-1.86c-2.2-.76-3.63-2-3.63-3.9,0-2.25,1.88-4,5-4a8.17,8.17,0,0,1,3.37.66l-.67,2.41a6.36,6.36,0,0,0-2.76-.62c-1.29,0-1.92.58-1.92,1.27,0,.84.74,1.21,2.45,1.86,2.33.86,3.42,2.08,3.42,3.94C230.05,255.54,228.35,257.42,224.73,257.42Zm18.71-.2-.2-5.05c-.06-1.59-.12-3.51-.12-5.42h-.05c-.42,1.68-1,3.56-1.47,5.11L240,257h-2.33l-1.41-5.11c-.43-1.55-.88-3.43-1.2-5.15h0c-.08,1.78-.14,3.81-.24,5.46l-.23,5h-2.77l.85-13.2h4l1.3,4.41c.41,1.53.82,3.17,1.11,4.72h.06c.37-1.53.82-3.27,1.25-4.74l1.41-4.39h3.9l.72,13.2Zm8.45.2a8.64,8.64,0,0,1-3.74-.8l.6-2.47a7.67,7.67,0,0,0,3.31.82c1.37,0,2.1-.57,2.1-1.43s-.63-1.29-2.21-1.86c-2.2-.76-3.63-2-3.63-3.9,0-2.25,1.88-4,5-4a8.2,8.2,0,0,1,3.37.66l-.67,2.41a6.36,6.36,0,0,0-2.76-.62c-1.29,0-1.92.58-1.92,1.27,0,.84.74,1.21,2.45,1.86,2.33.86,3.42,2.08,3.42,3.94C257.21,255.54,255.51,257.42,251.89,257.42Z"/></g><path class="cls-2" d="M222.56,69a12.39,12.39,0,0,0-20.07,13.84L170.58,108a12.42,12.42,0,0,0-11.64,0L127,82.84a12.38,12.38,0,1,0-22.59,0L72.51,108A12.41,12.41,0,1,0,78,113.88L109.9,88.71a12.43,12.43,0,0,0,11.65,0l31.91,25.17a12.39,12.39,0,0,0,20.06,13.83h0a12.38,12.38,0,0,0,2.53-13.83L208,88.71A12.39,12.39,0,0,0,222.56,69ZM69.8,122.06a4.4,4.4,0,1,1,0-6.22A4.41,4.41,0,0,1,69.8,122.06Zm42.82-41.18a4.39,4.39,0,1,1,6.21,0,4.38,4.38,0,0,1-6.21,0Zm55.25,41.18a4.4,4.4,0,1,1,0-6.22,4.41,4.41,0,0,1,0,6.22Zm49-41.18a4.39,4.39,0,0,1-7.5-3.11,4.35,4.35,0,0,1,1.28-3.1,4.39,4.39,0,1,1,6.22,6.21Z"/></g></g></svg>